<svg width="38" height="38" viewBox="0 0 38 38" fill="none" xmlns="http://www.w3.org/2000/svg">
<rect width="38" height="38" rx="4" fill="#FC185B"/>
<path d="M19 29.75C13.07 29.75 8.25 24.93 8.25 19C8.25 13.07 13.07 8.25 19 8.25C24.93 8.25 29.75 13.07 29.75 19C29.75 24.93 24.93 29.75 19 29.75ZM19 9.75C13.9 9.75 9.75 13.9 9.75 19C9.75 24.1 13.9 28.25 19 28.25C24.1 28.25 28.25 24.1 28.25 19C28.25 13.9 24.1 9.75 19 9.75Z" fill="white"/>
<path d="M16.1701 22.5804C15.9801 22.5804 15.7901 22.5104 15.6401 22.3604C15.3501 22.0704 15.3501 21.5904 15.6401 21.3004L21.3001 15.6404C21.5901 15.3504 22.0701 15.3504 22.3601 15.6404C22.6501 15.9304 22.6501 16.4104 22.3601 16.7004L16.7001 22.3604C16.5601 22.5104 16.3601 22.5804 16.1701 22.5804Z" fill="white"/>
<path d="M21.8301 22.5804C21.6401 22.5804 21.4501 22.5104 21.3001 22.3604L15.6401 16.7004C15.3501 16.4104 15.3501 15.9304 15.6401 15.6404C15.9301 15.3504 16.4101 15.3504 16.7001 15.6404L22.3601 21.3004C22.6501 21.5904 22.6501 22.0704 22.3601 22.3604C22.2101 22.5104 22.0201 22.5804 21.8301 22.5804Z" fill="white"/>
</svg>
