<svg width="16" height="16" viewBox="0 0 16 16" fill="none" xmlns="http://www.w3.org/2000/svg">
<g clip-path="url(#clip0_206_33)">
<path d="M14.0002 2.66667H11.9335C11.7788 1.91428 11.3694 1.23823 10.7743 0.752479C10.1793 0.266727 9.43497 0.000969683 8.66683 0L7.3335 0C6.56536 0.000969683 5.82104 0.266727 5.226 0.752479C4.63095 1.23823 4.22156 1.91428 4.06683 2.66667H2.00016C1.82335 2.66667 1.65378 2.7369 1.52876 2.86193C1.40373 2.98695 1.3335 3.15652 1.3335 3.33333C1.3335 3.51014 1.40373 3.67971 1.52876 3.80474C1.65378 3.92976 1.82335 4 2.00016 4H2.66683V12.6667C2.66789 13.5504 3.01942 14.3976 3.64431 15.0225C4.2692 15.6474 5.11643 15.9989 6.00016 16H10.0002C10.8839 15.9989 11.7311 15.6474 12.356 15.0225C12.9809 14.3976 13.3324 13.5504 13.3335 12.6667V4H14.0002C14.177 4 14.3465 3.92976 14.4716 3.80474C14.5966 3.67971 14.6668 3.51014 14.6668 3.33333C14.6668 3.15652 14.5966 2.98695 14.4716 2.86193C14.3465 2.7369 14.177 2.66667 14.0002 2.66667ZM7.3335 11.3333C7.3335 11.5101 7.26326 11.6797 7.13823 11.8047C7.01321 11.9298 6.84364 12 6.66683 12C6.49002 12 6.32045 11.9298 6.19543 11.8047C6.0704 11.6797 6.00016 11.5101 6.00016 11.3333V7.33333C6.00016 7.15652 6.0704 6.98695 6.19543 6.86193C6.32045 6.73691 6.49002 6.66667 6.66683 6.66667C6.84364 6.66667 7.01321 6.73691 7.13823 6.86193C7.26326 6.98695 7.3335 7.15652 7.3335 7.33333V11.3333ZM10.0002 11.3333C10.0002 11.5101 9.92992 11.6797 9.8049 11.8047C9.67988 11.9298 9.51031 12 9.3335 12C9.15669 12 8.98712 11.9298 8.86209 11.8047C8.73707 11.6797 8.66683 11.5101 8.66683 11.3333V7.33333C8.66683 7.15652 8.73707 6.98695 8.86209 6.86193C8.98712 6.73691 9.15669 6.66667 9.3335 6.66667C9.51031 6.66667 9.67988 6.73691 9.8049 6.86193C9.92992 6.98695 10.0002 7.15652 10.0002 7.33333V11.3333ZM5.4475 2.66667C5.58588 2.27699 5.84143 1.93967 6.17909 1.70096C6.51675 1.46225 6.91998 1.33384 7.3335 1.33333H8.66683C9.08035 1.33384 9.48358 1.46225 9.82124 1.70096C10.1589 1.93967 10.4144 2.27699 10.5528 2.66667H5.4475Z" fill="white"/>
</g>
<defs>
<clipPath id="clip0_206_33">
<rect width="16" height="16" fill="white"/>
</clipPath>
</defs>
</svg>
