<svg width="16" height="16" viewBox="0 0 16 16" fill="none" xmlns="http://www.w3.org/2000/svg">
<g clip-path="url(#clip0_206_36)">
<path d="M8.00016 10.6664C9.47291 10.6664 10.6668 9.47244 10.6668 7.99968C10.6668 6.52692 9.47291 5.33301 8.00016 5.33301C6.5274 5.33301 5.3335 6.52692 5.3335 7.99968C5.3335 9.47244 6.5274 10.6664 8.00016 10.6664Z" fill="white"/>
<path d="M15.514 6.27886C14.48 4.59486 12.128 1.76953 8.00003 1.76953C3.87203 1.76953 1.52003 4.59486 0.486034 6.27886C0.166386 6.79587 -0.00292969 7.39169 -0.00292969 7.99953C-0.00292969 8.60737 0.166386 9.20319 0.486034 9.7202C1.52003 11.4042 3.87203 14.2295 8.00003 14.2295C12.128 14.2295 14.48 11.4042 15.514 9.7202C15.8337 9.20319 16.003 8.60737 16.003 7.99953C16.003 7.39169 15.8337 6.79587 15.514 6.27886ZM8.00003 11.9995C7.20891 11.9995 6.43555 11.7649 5.77775 11.3254C5.11996 10.8859 4.60727 10.2612 4.30452 9.53027C4.00177 8.79936 3.92255 7.99509 4.07689 7.21917C4.23123 6.44325 4.6122 5.73051 5.17161 5.1711C5.73102 4.61169 6.44375 4.23073 7.21967 4.07639C7.9956 3.92205 8.79986 4.00126 9.53077 4.30401C10.2617 4.60676 10.8864 5.11945 11.3259 5.77725C11.7654 6.43505 12 7.20841 12 7.99953C11.999 9.06007 11.5772 10.0769 10.8273 10.8268C10.0774 11.5767 9.06058 11.9985 8.00003 11.9995Z" fill="white"/>
</g>
<defs>
<clipPath id="clip0_206_36">
<rect width="16" height="16" fill="white"/>
</clipPath>
</defs>
</svg>
